<svg xmlns="http://www.w3.org/2000/svg" viewBox="0 0 512 512">
  <defs>
    <linearGradient id="grad1" x1="0%" y1="0%" x2="100%" y2="100%">
      <stop offset="0%" style="stop-color:#6366f1;stop-opacity:1" />
      <stop offset="100%" style="stop-color:#4338ca;stop-opacity:1" />
    </linearGradient>
    <filter id="shadow" x="-20%" y="-20%" width="140%" height="140%">
      <feDropShadow dx="0" dy="4" stdDeviation="8" flood-color="#000000" flood-opacity="0.25"/>
    </filter>
  </defs>
  
  <!-- Background -->
  <rect x="32" y="32" width="448" height="448" rx="128" ry="128" fill="url(#grad1)" />
  
  <!-- Icon Group -->
  <g transform="translate(256 256) scale(1.1) translate(-256 -256)">
    <!-- Main Path: Checkmark flowing into P -->
    <path d="
      M 160 260
      Q 190 290 210 320
      L 220 335
      Q 230 350 240 330
      L 240 330
      C 240 330 250 180 340 180
      C 410 180 440 240 440 290
      C 440 360 380 400 320 400
      Q 280 400 260 380
    " 
    fill="none" 
    stroke="white" 
    stroke-width="50" 
    stroke-linecap="round" 
    stroke-linejoin="round"
    />
    
    <!-- Clock Hands (Inside the P loop) -->
    <path d="M 340 290 L 340 240" stroke="white" stroke-width="40" stroke-linecap="round" />
    <path d="M 340 290 L 380 310" stroke="white" stroke-width="40" stroke-linecap="round" />
  </g>
</svg>
